<svg id="svg" version="1.1" xmlns="http://www.w3.org/2000/svg" xmlns:xlink="http://www.w3.org/1999/xlink" width="400" height="400" viewBox="0, 0, 400,400"><g id="svgg"><path id="path0" d="M285.800 66.670 C 284.818 66.888,277.873 69.220,258.600 75.802 C 250.460 78.582,238.760 82.568,232.600 84.659 C 226.440 86.751,217.800 89.689,213.400 91.188 C 191.337 98.707,187.172 100.125,179.400 102.764 C 153.635 111.513,155.073 110.965,154.100 112.396 L 153.200 113.718 153.200 185.259 C 153.200 224.607,153.117 256.800,153.015 256.800 C 152.913 256.800,151.878 256.450,150.715 256.022 C 120.384 244.862,85.712 270.168,94.019 297.402 C 105.069 333.630,165.679 333.335,176.656 297.000 C 177.342 294.730,177.387 290.912,177.497 226.510 C 177.607 162.389,177.654 158.400,178.307 158.060 C 178.688 157.861,180.890 157.058,183.200 156.276 C 185.510 155.493,195.410 152.122,205.200 148.785 C 214.990 145.448,223.990 142.394,225.200 141.998 C 228.298 140.986,261.029 129.806,263.150 129.036 C 264.113 128.686,265.148 128.400,265.450 128.400 C 265.913 128.400,266.000 134.866,266.000 169.247 L 266.000 210.093 265.100 209.799 C 251.798 205.445,238.729 205.983,227.400 211.349 C 192.063 228.089,202.027 272.721,242.155 277.438 C 263.569 279.956,283.053 269.056,289.057 251.200 L 290.200 247.800 290.305 158.940 C 290.374 101.122,290.272 69.716,290.015 69.040 C 289.676 68.149,287.400 66.313,286.800 66.448 C 286.690 66.473,286.240 66.573,285.800 66.670 " stroke="none" fill="#040404" fill-rule="evenodd"></path><path id="path1" d="M197.717 20.297 C 199.211 20.374,201.551 20.374,202.917 20.296 C 204.282 20.218,203.060 20.155,200.200 20.155 C 197.340 20.156,196.222 20.220,197.717 20.297 M187.915 20.907 C 188.292 21.076,187.160 21.123,185.400 21.011 C 183.063 20.863,182.362 20.924,182.800 21.237 C 183.244 21.554,182.852 21.610,181.287 21.450 C 179.790 21.297,179.255 21.365,179.450 21.680 C 179.645 21.997,179.179 22.051,177.842 21.868 C 176.477 21.681,176.037 21.736,176.242 22.067 C 176.443 22.394,176.103 22.457,175.053 22.286 C 174.040 22.122,173.666 22.184,173.852 22.485 C 174.039 22.786,173.608 22.853,172.461 22.699 C 171.359 22.551,170.887 22.617,171.058 22.893 C 171.230 23.172,170.799 23.221,169.758 23.041 C 168.561 22.833,168.339 22.874,168.800 23.218 C 169.266 23.566,169.064 23.620,167.891 23.457 C 166.854 23.313,166.467 23.385,166.653 23.686 C 166.840 23.988,166.524 24.045,165.642 23.868 C 164.740 23.688,164.443 23.746,164.640 24.064 C 164.830 24.373,164.583 24.452,163.859 24.313 C 163.277 24.202,162.800 24.285,162.800 24.499 C 162.800 24.716,162.346 24.773,161.766 24.627 C 161.024 24.441,160.816 24.502,161.026 24.842 C 161.239 25.186,161.018 25.241,160.226 25.042 C 159.434 24.843,159.214 24.899,159.426 25.242 C 159.638 25.584,159.424 25.643,158.660 25.451 C 158.000 25.285,157.600 25.349,157.600 25.619 C 157.600 25.872,157.265 25.948,156.800 25.800 C 156.310 25.644,156.000 25.728,156.000 26.016 C 156.000 26.274,155.730 26.382,155.400 26.255 C 155.070 26.129,154.800 26.212,154.800 26.440 C 154.800 26.680,154.443 26.741,153.950 26.584 C 153.327 26.386,153.183 26.448,153.410 26.815 C 153.641 27.190,153.452 27.250,152.660 27.051 C 152.049 26.897,151.600 26.952,151.600 27.180 C 151.600 27.397,151.330 27.471,151.000 27.345 C 150.670 27.218,150.400 27.333,150.400 27.600 C 150.400 27.867,150.130 27.982,149.800 27.855 C 149.470 27.729,149.200 27.819,149.200 28.055 C 149.200 28.292,148.936 28.384,148.613 28.260 C 148.290 28.136,147.917 28.210,147.785 28.424 C 147.653 28.638,147.377 28.709,147.172 28.583 C 146.968 28.456,146.800 28.563,146.800 28.819 C 146.800 29.076,146.530 29.182,146.200 29.055 C 145.870 28.929,145.600 29.019,145.600 29.255 C 145.600 29.492,145.336 29.584,145.013 29.460 C 144.690 29.336,144.317 29.410,144.185 29.624 C 144.053 29.838,143.777 29.909,143.572 29.783 C 143.368 29.656,143.200 29.738,143.200 29.964 C 143.200 30.190,142.930 30.271,142.600 30.145 C 142.270 30.018,142.000 30.124,142.000 30.381 C 142.000 30.637,141.831 30.743,141.624 30.615 C 141.122 30.304,132.000 33.972,132.000 34.484 C 132.000 34.705,131.730 34.782,131.400 34.655 C 131.070 34.529,130.797 34.644,130.794 34.913 C 130.789 35.293,130.719 35.292,130.476 34.909 C 130.246 34.547,130.017 34.622,129.605 35.194 C 129.153 35.821,128.930 35.877,128.446 35.485 C 128.044 35.160,127.937 35.151,128.121 35.458 C 128.423 35.963,127.343 36.536,126.764 36.178 C 126.564 36.054,126.397 36.278,126.394 36.676 C 126.389 37.238,126.310 37.278,126.042 36.855 C 125.852 36.555,125.630 36.477,125.548 36.682 C 125.336 37.216,116.912 41.578,116.633 41.299 C 116.505 41.171,116.400 41.287,116.400 41.557 C 116.400 41.827,116.220 41.936,116.000 41.800 C 115.780 41.664,115.600 41.739,115.600 41.966 C 115.600 42.193,115.060 42.659,114.400 43.000 C 113.740 43.341,113.200 43.519,113.200 43.395 C 113.200 43.270,112.813 43.530,112.339 43.971 C 111.866 44.412,111.345 44.690,111.181 44.588 C 111.018 44.487,110.781 44.674,110.654 45.002 C 110.528 45.331,110.059 45.600,109.613 45.600 C 109.166 45.600,108.800 45.780,108.800 46.000 C 108.800 46.220,108.543 46.400,108.229 46.400 C 107.914 46.400,107.414 46.625,107.118 46.900 C 105.504 48.396,99.120 52.398,98.731 52.158 C 98.463 51.992,98.386 52.054,98.543 52.308 C 98.862 52.825,96.648 54.501,96.191 54.088 C 96.015 53.930,95.990 54.006,96.134 54.258 C 96.379 54.688,95.360 55.403,94.700 55.264 C 94.535 55.229,94.400 55.365,94.400 55.566 C 94.400 55.768,93.642 56.533,92.715 57.266 C 91.788 58.000,91.178 58.330,91.359 58.000 C 91.540 57.670,91.263 57.877,90.744 58.461 C 90.225 59.044,88.540 60.555,87.000 61.819 C 85.460 63.082,83.240 65.080,82.066 66.258 C 80.892 67.436,79.808 68.400,79.657 68.400 C 79.506 68.400,77.740 70.019,75.733 71.998 C 73.725 73.977,72.289 75.477,72.542 75.331 C 72.794 75.186,71.920 76.225,70.600 77.641 C 66.352 82.197,64.083 84.800,64.345 84.816 C 64.485 84.825,63.970 85.389,63.200 86.069 C 62.430 86.749,62.070 87.177,62.400 87.020 C 62.730 86.864,62.495 87.200,61.878 87.768 C 61.260 88.335,60.900 88.806,61.078 88.813 C 61.255 88.821,60.975 89.181,60.456 89.613 C 59.936 90.046,59.666 90.406,59.856 90.413 C 60.045 90.421,59.831 90.736,59.379 91.113 C 58.928 91.491,58.542 91.949,58.522 92.131 C 58.503 92.313,57.072 94.455,55.343 96.891 C 53.614 99.328,52.245 101.474,52.300 101.661 C 52.355 101.847,52.225 102.000,52.010 102.000 C 51.645 102.000,50.408 104.025,50.363 104.696 C 50.352 104.863,50.082 105.146,49.763 105.325 C 49.444 105.503,49.288 105.818,49.415 106.025 C 49.543 106.231,49.457 106.400,49.224 106.400 C 48.991 106.400,48.800 106.670,48.800 107.000 C 48.800 107.330,48.609 107.600,48.376 107.600 C 48.143 107.600,48.064 107.780,48.200 108.000 C 48.336 108.220,48.227 108.400,47.957 108.400 C 47.687 108.400,47.584 108.518,47.728 108.661 C 47.993 108.926,46.541 111.594,45.887 112.045 C 45.692 112.179,45.556 112.409,45.586 112.555 C 45.673 112.984,41.131 121.787,40.746 121.934 C 40.553 122.008,40.497 122.233,40.621 122.434 C 40.745 122.635,40.646 122.800,40.400 122.800 C 40.154 122.800,40.064 122.980,40.200 123.200 C 40.336 123.420,40.257 123.600,40.024 123.600 C 39.791 123.600,39.600 123.390,39.600 123.133 C 39.600 122.877,39.484 122.782,39.343 122.924 C 39.202 123.065,39.298 123.436,39.557 123.748 C 40.199 124.522,38.912 127.328,38.064 127.003 C 37.612 126.830,37.587 126.902,37.946 127.335 C 38.296 127.756,38.260 128.237,37.797 129.344 C 37.463 130.145,37.327 130.803,37.495 130.806 C 37.663 130.809,37.608 130.944,37.372 131.106 C 36.794 131.504,35.581 134.648,35.888 134.955 C 36.023 135.090,35.904 135.200,35.624 135.200 C 35.335 135.200,35.214 135.460,35.345 135.800 C 35.471 136.130,35.424 136.400,35.239 136.400 C 34.973 136.400,34.086 138.859,33.760 140.500 C 33.727 140.665,33.655 140.890,33.600 141.000 C 33.545 141.110,33.455 141.380,33.400 141.600 C 33.345 141.820,33.255 142.090,33.200 142.200 C 33.145 142.310,33.078 142.565,33.050 142.767 C 33.023 142.968,32.877 143.256,32.728 143.406 C 32.578 143.556,32.552 143.931,32.670 144.239 C 32.789 144.548,32.676 144.800,32.419 144.800 C 32.163 144.800,32.056 144.968,32.183 145.172 C 32.309 145.377,32.223 145.662,31.990 145.806 C 31.758 145.950,31.677 146.412,31.811 146.834 C 31.952 147.279,31.865 147.600,31.603 147.600 C 31.356 147.600,31.256 147.768,31.383 147.972 C 31.509 148.177,31.427 148.460,31.200 148.600 C 30.973 148.740,30.891 149.023,31.017 149.228 C 31.144 149.432,31.110 149.822,30.943 150.093 C 30.775 150.364,30.617 150.859,30.592 151.193 C 30.499 152.429,29.428 156.800,29.217 156.801 C 29.098 156.801,28.982 157.322,28.960 157.957 C 28.937 158.592,28.776 159.447,28.600 159.856 C 28.425 160.265,28.321 161.005,28.369 161.500 C 28.418 161.995,28.296 162.400,28.098 162.400 C 27.900 162.400,27.822 162.966,27.923 163.657 C 28.031 164.396,27.950 164.817,27.726 164.678 C 27.504 164.541,27.417 164.935,27.518 165.621 C 27.613 166.270,27.522 166.800,27.315 166.800 C 27.108 166.800,27.018 167.340,27.115 168.000 C 27.212 168.660,27.127 169.200,26.926 169.200 C 26.725 169.200,26.634 169.830,26.724 170.600 C 26.814 171.370,26.733 172.001,26.544 172.003 C 26.355 172.005,26.144 173.485,26.075 175.292 C 26.007 177.099,25.819 178.763,25.657 178.989 C 25.042 179.852,25.123 203.981,25.765 211.107 C 26.750 222.040,28.872 233.400,31.756 243.177 C 32.304 245.035,32.662 246.700,32.552 246.877 C 32.443 247.055,32.563 247.200,32.819 247.200 C 33.076 247.200,33.182 247.470,33.055 247.800 C 32.929 248.130,33.007 248.400,33.230 248.400 C 33.453 248.400,33.584 248.625,33.522 248.900 C 33.351 249.655,34.874 254.400,35.287 254.400 C 35.485 254.400,35.548 254.561,35.426 254.758 C 35.305 254.954,35.480 255.772,35.815 256.575 C 36.151 257.378,36.301 258.252,36.149 258.518 C 35.996 258.783,36.024 258.862,36.209 258.693 C 36.616 258.324,37.741 260.646,37.751 261.875 C 37.754 262.356,37.872 262.679,38.012 262.592 C 38.153 262.506,38.686 263.462,39.198 264.717 C 40.615 268.196,45.041 276.962,47.450 281.060 C 48.632 283.074,49.600 284.919,49.600 285.160 C 49.600 285.402,49.802 285.600,50.049 285.600 C 50.352 285.600,50.330 285.802,49.981 286.223 C 49.697 286.565,49.630 286.814,49.832 286.775 C 50.651 286.619,51.233 286.822,51.009 287.185 C 50.878 287.397,51.119 287.919,51.545 288.345 C 52.131 288.931,52.208 289.234,51.860 289.589 C 51.520 289.935,51.519 290.024,51.856 289.929 C 52.107 289.858,53.699 291.780,55.394 294.200 C 64.244 306.833,75.312 319.049,86.390 328.411 C 87.815 329.615,89.220 330.822,89.512 331.093 C 92.283 333.665,108.180 344.800,109.080 344.800 C 109.366 344.800,109.600 344.980,109.600 345.200 C 109.600 345.420,109.834 345.600,110.120 345.600 C 110.406 345.600,110.865 345.825,111.140 346.100 C 111.415 346.375,111.770 346.600,111.930 346.600 C 112.432 346.600,114.381 348.282,114.190 348.550 C 114.089 348.691,114.205 348.641,114.447 348.440 C 114.729 348.204,115.555 348.465,116.744 349.165 C 120.893 351.607,135.913 358.554,137.877 358.940 C 139.298 359.219,141.208 360.259,140.907 360.591 C 140.738 360.776,140.802 360.813,141.050 360.671 C 141.297 360.530,142.467 360.758,143.650 361.178 C 144.832 361.598,145.545 361.955,145.233 361.971 C 144.922 361.987,144.782 362.116,144.924 362.257 C 145.065 362.398,145.430 362.307,145.734 362.055 C 146.159 361.702,146.697 361.776,148.044 362.372 C 149.010 362.799,150.292 363.238,150.893 363.347 C 151.495 363.455,152.150 363.646,152.350 363.769 C 152.550 363.893,153.318 364.075,154.057 364.174 C 154.796 364.274,157.650 364.895,160.400 365.555 C 186.551 371.830,216.136 371.539,242.902 364.744 C 245.488 364.087,247.963 363.523,248.402 363.490 C 248.841 363.457,249.200 363.277,249.200 363.091 C 249.200 362.905,249.354 362.848,249.541 362.964 C 249.879 363.172,251.959 362.611,253.281 361.955 C 253.681 361.756,254.063 361.778,254.205 362.008 C 254.338 362.224,254.662 362.397,254.924 362.394 C 255.210 362.390,255.161 362.233,254.800 362.000 C 254.133 361.569,254.855 361.406,256.800 361.549 C 257.593 361.608,257.676 361.539,257.200 361.218 C 256.595 360.809,257.128 360.627,258.727 360.697 C 259.016 360.710,259.148 360.615,259.020 360.487 C 258.766 360.232,260.920 359.174,262.191 358.930 C 264.640 358.458,287.220 347.600,287.539 346.741 C 287.615 346.535,287.965 346.599,288.316 346.883 C 288.667 347.167,288.838 347.207,288.697 346.971 C 288.290 346.290,289.815 345.175,290.383 345.739 C 290.735 346.088,290.783 346.030,290.581 345.500 C 290.429 345.100,290.500 344.800,290.747 344.800 C 292.645 344.800,310.941 331.166,318.600 324.046 C 327.242 316.011,341.510 299.669,343.286 295.772 C 343.529 295.237,343.865 294.800,344.032 294.800 C 344.198 294.800,344.725 294.169,345.202 293.398 C 345.723 292.553,346.254 292.106,346.534 292.274 C 346.791 292.428,346.755 292.252,346.455 291.882 C 345.989 291.307,346.003 291.174,346.553 290.963 C 346.906 290.827,347.113 290.582,347.012 290.419 C 346.910 290.255,347.181 289.741,347.614 289.277 C 348.046 288.813,348.400 288.227,348.400 287.974 C 348.400 287.712,348.683 287.623,349.057 287.766 C 349.581 287.968,349.620 287.906,349.252 287.462 C 348.897 287.035,348.927 286.792,349.383 286.414 C 349.709 286.143,350.792 284.409,351.788 282.561 C 352.785 280.712,354.440 277.640,355.468 275.734 C 356.495 273.828,358.271 270.234,359.415 267.748 C 360.559 265.263,361.618 263.352,361.769 263.502 C 361.919 263.653,361.912 263.437,361.753 263.022 C 361.536 262.458,361.597 262.351,361.994 262.596 C 362.349 262.816,362.428 262.769,362.235 262.456 C 362.076 262.199,362.488 260.596,363.151 258.894 C 364.840 254.555,364.936 254.262,364.846 253.700 C 364.801 253.425,364.983 253.200,365.249 253.200 C 365.515 253.200,365.631 253.097,365.505 252.972 C 365.380 252.846,365.515 252.284,365.807 251.722 C 366.098 251.160,366.242 250.453,366.126 250.150 C 366.009 249.848,366.108 249.600,366.345 249.600 C 366.581 249.600,366.671 249.330,366.545 249.000 C 366.418 248.670,366.475 248.400,366.672 248.400 C 366.869 248.400,367.055 248.085,367.086 247.700 C 367.118 247.315,367.872 244.390,368.763 241.200 C 371.392 231.791,373.465 220.117,374.412 209.400 C 374.875 204.154,374.828 179.201,374.355 179.200 C 374.146 179.200,373.663 175.162,373.374 171.000 C 373.328 170.340,373.160 169.482,373.000 169.094 C 372.840 168.706,372.803 168.030,372.918 167.593 C 373.032 167.156,372.985 166.886,372.813 166.992 C 372.448 167.218,371.866 163.341,372.187 162.821 C 372.307 162.627,372.212 162.404,371.975 162.325 C 371.739 162.246,371.514 161.348,371.474 160.328 C 371.435 159.309,371.267 158.559,371.101 158.661 C 370.936 158.763,370.769 158.342,370.732 157.724 C 370.602 155.594,370.569 155.397,370.262 154.900 C 370.092 154.625,370.055 154.235,370.179 154.034 C 370.303 153.833,370.219 153.606,369.992 153.531 C 369.765 153.455,369.504 152.675,369.413 151.797 C 369.321 150.918,369.214 150.110,369.176 150.000 C 369.137 149.890,369.127 149.665,369.153 149.500 C 369.179 149.335,368.999 149.200,368.753 149.200 C 368.504 149.200,368.399 148.847,368.516 148.400 C 368.631 147.960,368.550 147.600,368.336 147.600 C 368.121 147.600,368.060 147.240,368.200 146.800 C 368.342 146.351,368.272 146.000,368.040 146.000 C 367.812 146.000,367.722 145.748,367.840 145.440 C 367.958 145.133,367.859 144.760,367.621 144.613 C 367.382 144.465,367.291 144.177,367.417 143.972 C 367.544 143.768,367.437 143.600,367.181 143.600 C 366.924 143.600,366.811 143.348,366.930 143.039 C 367.048 142.731,367.022 142.356,366.872 142.206 C 366.723 142.056,366.590 141.813,366.577 141.667 C 366.479 140.508,365.864 138.800,365.545 138.800 C 365.329 138.800,365.269 138.612,365.411 138.382 C 365.553 138.153,365.489 137.748,365.268 137.482 C 365.048 137.217,364.830 136.820,364.783 136.600 C 364.379 134.695,363.029 131.200,362.697 131.200 C 362.508 131.200,362.441 131.058,362.548 130.884 C 362.656 130.710,362.501 130.035,362.205 129.384 C 360.462 125.551,359.467 123.076,359.467 122.573 C 359.467 122.258,359.306 122.000,359.110 122.000 C 358.913 122.000,358.864 121.820,359.000 121.600 C 359.136 121.380,359.046 121.200,358.800 121.200 C 358.554 121.200,358.455 121.035,358.579 120.834 C 358.703 120.633,358.659 120.408,358.481 120.334 C 358.044 120.153,352.573 109.915,352.700 109.516 C 352.755 109.342,352.609 109.200,352.376 109.200 C 352.143 109.200,352.052 109.039,352.174 108.842 C 352.296 108.645,352.126 108.381,351.798 108.254 C 351.469 108.128,351.200 107.679,351.200 107.255 C 351.200 106.832,350.930 106.382,350.600 106.255 C 350.270 106.129,350.000 105.679,350.000 105.255 C 350.000 104.832,349.719 104.378,349.375 104.246 C 349.031 104.114,348.844 103.852,348.961 103.663 C 349.077 103.475,348.812 102.934,348.371 102.461 C 347.930 101.987,347.711 101.594,347.884 101.587 C 348.058 101.580,347.912 101.355,347.560 101.087 C 347.208 100.819,346.904 100.458,346.883 100.284 C 346.862 100.110,345.639 98.283,344.166 96.225 C 342.692 94.166,341.557 92.393,341.643 92.286 C 341.729 92.178,341.350 91.716,340.800 91.258 C 340.250 90.801,339.955 90.421,340.144 90.413 C 340.334 90.406,340.064 90.046,339.544 89.613 C 339.025 89.181,338.759 88.821,338.954 88.813 C 339.149 88.806,338.832 88.426,338.250 87.968 C 337.668 87.510,337.295 86.970,337.420 86.768 C 337.545 86.566,337.477 86.400,337.269 86.400 C 337.060 86.400,335.845 85.106,334.567 83.525 C 333.289 81.944,331.098 79.434,329.696 77.949 C 328.295 76.464,327.136 75.171,327.120 75.077 C 327.104 74.982,325.451 73.218,323.446 71.157 C 321.441 69.096,320.070 67.757,320.400 68.181 C 321.468 69.556,319.968 68.436,318.461 66.734 C 317.725 65.902,315.340 63.749,313.161 61.948 C 310.983 60.148,309.200 58.512,309.200 58.314 C 309.200 58.115,309.034 58.055,308.832 58.180 C 308.630 58.305,308.090 57.932,307.632 57.350 C 307.174 56.768,306.794 56.451,306.787 56.646 C 306.779 56.841,306.419 56.575,305.987 56.056 C 305.554 55.536,305.194 55.266,305.187 55.456 C 305.179 55.645,304.819 55.375,304.387 54.856 C 303.954 54.336,303.600 54.043,303.600 54.203 C 303.600 54.364,302.992 54.031,302.249 53.465 C 301.507 52.898,300.787 52.547,300.649 52.684 C 300.512 52.821,300.400 52.732,300.400 52.485 C 300.400 51.998,292.735 46.800,292.016 46.800 C 291.773 46.800,291.472 46.531,291.346 46.202 C 291.219 45.874,290.962 45.700,290.773 45.817 C 290.584 45.934,290.093 45.708,289.681 45.315 C 289.270 44.922,288.678 44.545,288.367 44.478 C 288.055 44.411,287.602 44.099,287.360 43.784 C 287.119 43.470,286.804 43.330,286.660 43.473 C 286.517 43.616,286.400 43.493,286.400 43.200 C 286.400 42.907,286.287 42.779,286.149 42.917 C 285.810 43.257,283.600 42.085,283.600 41.566 C 283.600 41.339,283.420 41.264,283.200 41.400 C 282.980 41.536,282.800 41.427,282.800 41.157 C 282.800 40.887,282.692 40.775,282.559 40.907 C 282.340 41.126,274.871 37.402,274.400 36.839 C 274.290 36.708,273.840 36.600,273.400 36.600 C 272.960 36.600,272.635 36.406,272.677 36.169 C 272.720 35.931,272.360 35.768,271.877 35.806 C 271.395 35.843,270.685 35.515,270.300 35.076 C 269.888 34.606,269.600 34.486,269.600 34.785 C 269.600 35.155,269.330 35.115,268.600 34.637 C 268.050 34.276,267.600 34.089,267.600 34.219 C 267.600 34.350,267.309 34.166,266.954 33.811 C 266.598 33.455,266.105 33.232,265.857 33.314 C 265.610 33.397,265.157 33.214,264.852 32.909 C 264.547 32.604,264.050 32.449,263.748 32.564 C 263.447 32.680,263.200 32.625,263.200 32.441 C 263.200 32.122,257.917 30.034,256.635 29.846 C 256.299 29.797,255.910 29.644,255.772 29.506 C 255.635 29.368,255.269 29.352,254.961 29.470 C 254.652 29.589,254.400 29.476,254.400 29.219 C 254.400 28.963,254.232 28.856,254.028 28.983 C 253.823 29.109,253.540 29.027,253.400 28.800 C 253.260 28.573,252.990 28.483,252.800 28.600 C 252.610 28.717,252.347 28.638,252.215 28.424 C 252.083 28.210,251.710 28.136,251.387 28.260 C 251.064 28.384,250.800 28.303,250.800 28.080 C 250.800 27.857,250.412 27.776,249.937 27.900 C 249.290 28.070,249.157 27.993,249.403 27.595 C 249.640 27.211,249.550 27.133,249.078 27.315 C 248.719 27.452,248.330 27.410,248.212 27.220 C 248.095 27.030,247.611 26.977,247.137 27.101 C 246.509 27.265,246.360 27.188,246.588 26.820 C 246.818 26.448,246.676 26.385,246.050 26.584 C 245.581 26.733,245.200 26.680,245.200 26.464 C 245.200 26.250,244.812 26.176,244.337 26.300 C 243.732 26.459,243.563 26.383,243.771 26.047 C 243.987 25.697,243.771 25.642,242.974 25.842 C 242.182 26.041,241.961 25.986,242.174 25.642 C 242.386 25.299,242.166 25.243,241.374 25.442 C 240.582 25.641,240.361 25.586,240.574 25.242 C 240.784 24.902,240.576 24.841,239.834 25.027 C 239.231 25.179,238.800 25.118,238.800 24.881 C 238.800 24.658,238.440 24.569,238.000 24.684 C 237.560 24.799,237.200 24.697,237.200 24.457 C 237.200 24.185,236.709 24.104,235.900 24.244 C 234.902 24.415,234.739 24.367,235.200 24.034 C 235.655 23.706,235.471 23.664,234.438 23.863 C 233.496 24.044,233.159 23.989,233.347 23.686 C 233.533 23.385,233.146 23.313,232.109 23.457 C 230.951 23.618,230.739 23.564,231.200 23.227 C 231.654 22.896,231.361 22.847,230.000 23.027 C 228.679 23.201,228.360 23.152,228.800 22.844 C 229.243 22.533,228.991 22.488,227.838 22.674 C 226.716 22.854,226.355 22.796,226.558 22.467 C 226.763 22.137,226.307 22.073,224.921 22.238 C 223.491 22.408,223.153 22.356,223.600 22.036 C 224.044 21.717,223.689 21.673,222.237 21.866 C 220.841 22.051,220.354 21.997,220.550 21.680 C 220.745 21.365,220.210 21.297,218.713 21.450 C 217.148 21.610,216.756 21.554,217.200 21.237 C 217.638 20.924,216.937 20.863,214.600 21.011 C 212.840 21.123,211.708 21.076,212.085 20.907 C 212.462 20.738,207.024 20.600,200.000 20.600 C 192.976 20.600,187.538 20.738,187.915 20.907 M164.000 37.600 C 162.632 38.038,161.581 38.038,162.600 37.600 C 163.040 37.411,163.760 37.262,164.200 37.268 C 164.843 37.277,164.804 37.343,164.000 37.600 M155.800 39.790 C 152.500 40.755,148.735 41.917,147.434 42.373 C 146.133 42.829,144.997 43.130,144.909 43.043 C 144.552 42.685,159.378 38.087,161.000 38.052 C 161.440 38.043,159.100 38.825,155.800 39.790 M242.374 38.825 C 246.484 39.945,254.084 42.450,253.908 42.625 C 253.830 42.704,252.333 42.310,250.583 41.751 C 248.832 41.192,245.330 40.128,242.800 39.386 C 237.796 37.919,237.469 37.487,242.374 38.825 M258.040 44.040 C 259.808 44.721,261.188 45.346,261.106 45.427 C 260.963 45.571,254.772 43.280,254.433 42.958 C 254.036 42.581,255.032 42.880,258.040 44.040 M144.367 43.360 C 144.022 43.691,139.059 45.592,138.915 45.449 C 138.833 45.366,139.898 44.835,141.283 44.269 C 143.618 43.314,144.768 42.975,144.367 43.360 M263.200 46.200 C 263.750 46.514,264.020 46.772,263.800 46.772 C 263.580 46.772,262.950 46.514,262.400 46.200 C 261.850 45.886,261.580 45.628,261.800 45.628 C 262.020 45.628,262.650 45.886,263.200 46.200 M121.567 53.745 C 121.475 53.825,118.700 55.530,115.400 57.534 C 112.100 59.538,109.902 60.777,110.516 60.289 C 111.949 59.149,120.883 53.664,121.367 53.627 C 121.568 53.612,121.658 53.665,121.567 53.745 M284.600 57.145 C 288.529 59.573,293.200 62.766,293.200 63.025 C 293.200 63.114,291.028 61.752,288.373 59.998 C 285.718 58.244,282.388 56.161,280.973 55.370 C 279.558 54.579,278.400 53.852,278.400 53.755 C 278.400 53.478,280.694 54.732,284.600 57.145 M109.200 61.373 C 109.200 61.468,108.615 61.933,107.900 62.406 L 106.600 63.266 107.800 62.235 C 109.031 61.178,109.200 61.073,109.200 61.373 M106.400 63.373 C 106.400 63.468,105.815 63.933,105.100 64.406 L 103.800 65.266 105.000 64.235 C 106.231 63.178,106.400 63.073,106.400 63.373 M296.000 65.054 C 296.000 65.164,295.460 64.870,294.800 64.400 C 294.140 63.930,293.600 63.456,293.600 63.346 C 293.600 63.236,294.140 63.530,294.800 64.000 C 295.460 64.470,296.000 64.944,296.000 65.054 M289.427 67.747 L 290.775 69.095 290.682 158.247 C 290.577 258.643,290.882 248.892,287.637 255.687 C 275.393 281.330,234.032 286.187,214.209 264.308 C 187.713 235.064,223.175 196.000,264.300 209.129 L 265.600 209.544 265.600 169.172 C 265.600 146.967,265.555 128.801,265.500 128.803 C 265.152 128.814,258.722 130.960,245.800 135.378 C 237.660 138.162,228.660 141.228,225.800 142.192 C 222.940 143.156,214.210 146.128,206.400 148.796 C 198.590 151.464,190.040 154.372,187.400 155.258 C 184.760 156.143,181.565 157.237,180.300 157.688 L 178.000 158.507 178.000 225.380 C 178.000 296.740,178.060 294.577,175.941 300.083 C 161.396 337.886,94.722 330.127,92.513 290.375 C 91.139 265.659,122.848 246.065,149.423 255.208 C 150.689 255.644,151.967 256.000,152.263 256.000 C 152.710 256.000,152.800 244.198,152.800 185.187 C 152.800 108.476,152.686 112.480,154.916 111.019 C 155.886 110.382,158.372 109.496,175.200 103.787 C 179.930 102.182,191.540 98.225,201.000 94.992 C 210.460 91.760,219.460 88.702,221.000 88.197 C 222.540 87.692,230.190 85.091,238.000 82.417 C 245.810 79.743,255.890 76.303,260.400 74.773 C 264.910 73.242,272.200 70.747,276.600 69.228 C 286.102 65.948,287.470 65.790,289.427 67.747 M313.404 79.800 C 316.979 83.329,317.199 83.590,314.234 80.785 C 312.015 78.687,308.670 75.557,306.800 73.829 C 304.478 71.684,304.215 71.372,305.971 72.844 C 307.384 74.030,310.730 77.160,313.404 79.800 M95.586 71.733 C 92.013 74.983,90.723 76.007,93.107 73.700 C 94.528 72.325,95.799 71.200,95.931 71.200 C 96.063 71.200,95.908 71.440,95.586 71.733 M90.000 76.507 C 90.000 76.565,87.885 78.680,85.300 81.207 L 80.600 85.800 85.193 81.100 C 89.460 76.734,90.000 76.218,90.000 76.507 M322.467 89.152 C 323.713 90.608,325.125 92.340,325.604 93.000 C 326.082 93.660,325.693 93.300,324.739 92.200 C 323.784 91.100,322.013 89.140,320.802 87.844 C 319.591 86.548,318.960 85.717,319.400 85.996 C 319.840 86.275,321.220 87.695,322.467 89.152 M80.400 86.519 C 80.400 86.584,79.643 87.349,78.718 88.219 L 77.037 89.800 78.418 88.134 C 79.594 86.716,80.400 86.059,80.400 86.519 M77.200 90.125 C 77.200 90.194,76.615 90.779,75.900 91.425 L 74.600 92.600 75.775 91.300 C 76.870 90.088,77.200 89.816,77.200 90.125 M334.526 104.900 C 337.402 109.050,342.134 116.799,341.922 117.012 C 341.846 117.088,340.905 115.676,339.832 113.875 C 338.759 112.074,336.468 108.485,334.740 105.900 C 333.012 103.315,331.680 101.200,331.780 101.200 C 331.879 101.200,333.115 102.865,334.526 104.900 M66.656 103.700 C 66.303 104.195,64.268 107.390,62.135 110.800 C 58.422 116.735,56.924 118.920,58.007 116.822 C 59.771 113.403,66.618 102.800,67.061 102.800 C 67.191 102.800,67.009 103.205,66.656 103.700 M50.247 133.865 C 49.909 134.489,49.625 134.873,49.616 134.719 C 49.589 134.243,50.520 132.386,50.696 132.563 C 50.788 132.654,50.586 133.240,50.247 133.865 M350.372 134.600 C 350.372 134.820,350.114 134.550,349.800 134.000 C 349.486 133.450,349.228 132.820,349.228 132.600 C 349.228 132.380,349.486 132.650,349.800 133.200 C 350.114 133.750,350.372 134.380,350.372 134.600 M354.262 145.106 C 355.472 148.685,356.393 151.820,356.309 152.073 C 356.225 152.325,355.739 151.108,355.230 149.366 C 354.720 147.625,353.527 144.040,352.578 141.400 C 350.408 135.366,350.166 134.545,351.220 136.800 C 351.682 137.790,353.051 141.528,354.262 145.106 M46.631 143.609 C 45.465 147.014,44.098 151.377,43.594 153.305 C 43.089 155.232,42.600 156.733,42.506 156.639 C 42.242 156.375,44.202 149.474,46.164 143.762 C 48.277 137.612,48.461 137.128,48.625 137.291 C 48.694 137.361,47.797 140.203,46.631 143.609 M357.791 157.571 C 357.901 158.357,357.637 157.740,357.204 156.200 C 356.772 154.660,356.432 153.220,356.449 153.000 C 356.498 152.353,357.572 156.013,357.791 157.571 M41.971 159.771 C 41.697 161.000,41.394 161.928,41.300 161.833 C 41.206 161.739,41.354 160.657,41.629 159.429 C 41.903 158.200,42.206 157.272,42.300 157.367 C 42.394 157.461,42.246 158.543,41.971 159.771 M359.514 165.400 C 359.509 165.840,359.274 165.300,358.991 164.200 C 358.708 163.100,358.481 161.840,358.486 161.400 C 358.491 160.960,358.726 161.500,359.009 162.600 C 359.292 163.700,359.519 164.960,359.514 165.400 M40.960 164.360 C 40.813 165.277,40.610 165.943,40.507 165.840 C 40.404 165.738,40.446 164.910,40.600 164.000 C 40.754 163.090,40.958 162.424,41.053 162.520 C 41.148 162.615,41.107 163.443,40.960 164.360 M37.876 196.300 C 37.775 196.685,37.693 196.370,37.693 195.600 C 37.693 194.830,37.775 194.515,37.876 194.900 C 37.976 195.285,37.976 195.915,37.876 196.300 M359.200 227.400 C 358.926 228.850,358.626 229.959,358.533 229.866 C 358.439 229.772,358.582 228.505,358.850 227.050 C 359.118 225.595,359.418 224.485,359.517 224.584 C 359.616 224.683,359.474 225.950,359.200 227.400 M42.001 231.154 C 42.455 233.218,42.754 234.980,42.665 235.068 C 42.469 235.265,40.781 228.035,40.829 227.200 C 40.880 226.303,41.093 227.020,42.001 231.154 M357.600 234.400 C 357.106 236.399,356.630 237.963,356.541 237.875 C 356.453 237.786,356.781 236.074,357.270 234.070 C 357.758 232.065,358.235 230.502,358.328 230.595 C 358.422 230.688,358.094 232.401,357.600 234.400 M46.616 247.000 C 47.973 250.960,49.202 254.560,49.348 255.000 C 49.494 255.440,49.252 255.080,48.810 254.200 C 47.837 252.262,43.380 238.761,43.066 236.800 C 42.941 236.022,43.132 236.377,43.495 237.600 C 43.855 238.810,45.259 243.040,46.616 247.000 M354.973 243.653 C 353.293 248.876,350.750 255.684,350.553 255.486 C 350.479 255.412,351.300 252.933,352.378 249.976 C 353.456 247.019,354.752 243.191,355.258 241.468 C 355.765 239.746,356.237 238.510,356.307 238.721 C 356.378 238.933,355.777 241.152,354.973 243.653 M58.600 274.400 C 58.941 275.060,59.131 275.600,59.021 275.600 C 58.911 275.600,58.541 275.060,58.200 274.400 C 57.859 273.740,57.669 273.200,57.779 273.200 C 57.889 273.200,58.259 273.740,58.600 274.400 M340.180 277.100 C 338.359 280.257,332.445 289.125,331.962 289.424 C 331.713 289.577,332.492 288.285,333.692 286.551 C 334.892 284.818,337.011 281.555,338.401 279.300 C 340.973 275.129,342.175 273.642,340.180 277.100 M64.144 283.300 C 65.813 285.885,67.098 288.000,66.999 288.000 C 66.795 288.000,62.621 281.798,61.212 279.400 C 59.429 276.365,61.118 278.612,64.144 283.300 M68.400 289.600 C 68.870 290.260,69.164 290.800,69.054 290.800 C 68.944 290.800,68.470 290.260,68.000 289.600 C 67.530 288.940,67.236 288.400,67.346 288.400 C 67.456 288.400,67.930 288.940,68.400 289.600 M79.326 303.200 C 80.206 304.190,82.832 306.988,85.163 309.417 C 87.728 312.091,87.190 311.618,83.799 308.217 C 80.718 305.128,77.412 301.610,76.451 300.400 C 74.541 297.995,75.728 299.151,79.326 303.200 M323.134 300.896 C 322.400 301.829,319.209 305.204,316.042 308.396 L 310.284 314.200 315.244 309.000 C 317.972 306.140,321.092 302.765,322.178 301.500 C 324.487 298.811,325.057 298.450,323.134 300.896 M308.370 315.837 C 307.161 317.131,301.542 321.871,299.400 323.405 C 296.984 325.135,298.511 323.735,303.200 319.921 C 305.510 318.042,307.743 316.121,308.162 315.652 C 308.581 315.183,309.017 314.800,309.132 314.800 C 309.246 314.800,308.903 315.267,308.370 315.837 M98.801 321.755 C 101.358 323.966,99.559 322.679,96.000 319.751 C 94.350 318.394,92.550 316.783,92.000 316.171 C 91.112 315.184,92.865 316.623,98.801 321.755 M124.000 338.404 C 124.330 338.626,123.610 338.331,122.400 337.750 C 119.961 336.578,112.141 331.809,111.200 330.920 C 110.709 330.456,121.948 337.028,124.000 338.404 M287.200 331.986 C 285.857 333.018,278.551 337.360,276.800 338.166 C 274.967 339.011,275.535 338.639,282.200 334.625 C 287.917 331.182,288.970 330.626,287.200 331.986 M151.713 349.790 C 154.181 350.563,158.180 351.723,160.600 352.368 C 163.020 353.012,164.716 353.553,164.368 353.570 C 162.900 353.640,146.000 348.630,146.000 348.124 C 146.000 348.009,146.276 348.020,146.613 348.150 C 146.950 348.279,149.245 349.017,151.713 349.790 M252.891 348.637 C 248.862 350.399,230.105 355.240,227.600 355.165 C 227.050 355.149,229.120 354.615,232.200 353.979 C 237.777 352.828,247.013 350.330,251.200 348.841 C 253.760 347.930,254.793 347.806,252.891 348.637 M169.800 354.422 C 171.994 354.893,172.619 355.114,171.400 354.987 C 169.270 354.765,164.592 353.702,165.600 353.669 C 165.930 353.658,167.820 353.996,169.800 354.422 M178.367 355.850 C 178.664 356.118,175.834 355.915,174.600 355.580 C 173.811 355.365,174.222 355.330,175.800 355.477 C 177.120 355.600,178.275 355.768,178.367 355.850 M225.400 355.600 C 224.740 355.768,223.570 355.901,222.800 355.896 L 221.400 355.886 223.000 355.600 C 225.313 355.186,227.028 355.186,225.400 355.600 M181.105 356.275 C 180.722 356.375,180.002 356.379,179.505 356.283 C 179.007 356.187,179.320 356.105,180.200 356.101 C 181.080 356.096,181.487 356.175,181.105 356.275 M220.705 356.275 C 220.322 356.375,219.602 356.379,219.105 356.283 C 218.607 356.187,218.920 356.105,219.800 356.101 C 220.680 356.096,221.087 356.175,220.705 356.275 M184.305 356.675 C 183.922 356.775,183.202 356.779,182.705 356.683 C 182.207 356.587,182.520 356.505,183.400 356.501 C 184.280 356.496,184.687 356.575,184.305 356.675 M217.505 356.675 C 217.122 356.775,216.402 356.779,215.905 356.683 C 215.407 356.587,215.720 356.505,216.600 356.501 C 217.480 356.496,217.887 356.575,217.505 356.675 M189.507 357.086 C 188.906 357.177,187.826 357.179,187.107 357.090 C 186.388 357.001,186.880 356.926,188.200 356.924 C 189.520 356.922,190.108 356.995,189.507 357.086 M213.500 357.076 C 213.115 357.176,212.485 357.176,212.100 357.076 C 211.715 356.975,212.030 356.893,212.800 356.893 C 213.570 356.893,213.885 356.975,213.500 357.076 M195.105 357.475 C 194.722 357.575,194.002 357.579,193.505 357.483 C 193.007 357.387,193.320 357.305,194.200 357.301 C 195.080 357.296,195.487 357.375,195.105 357.475 M200.700 357.476 C 200.315 357.576,199.685 357.576,199.300 357.476 C 198.915 357.375,199.230 357.293,200.000 357.293 C 200.770 357.293,201.085 357.375,200.700 357.476 " stroke="none" fill="#4afbbf" fill-rule="evenodd"></path><path id="path2" d="M184.000 20.311 C 182.440 20.425,172.458 21.687,169.014 22.205 C 163.803 22.990,151.813 25.781,149.195 26.820 C 148.642 27.039,147.657 27.315,147.007 27.433 C 146.357 27.551,145.625 27.813,145.381 28.016 C 145.137 28.218,144.551 28.443,144.079 28.515 C 143.607 28.587,143.096 28.771,142.944 28.923 C 142.791 29.075,142.277 29.200,141.800 29.200 C 141.323 29.200,140.798 29.335,140.633 29.500 C 140.468 29.665,140.213 29.806,140.067 29.814 C 139.920 29.822,139.419 30.041,138.953 30.300 C 138.487 30.560,137.992 30.658,137.853 30.519 C 137.714 30.380,137.600 30.496,137.600 30.776 C 137.600 31.065,137.340 31.186,137.000 31.055 C 136.670 30.929,136.400 31.010,136.400 31.236 C 136.400 31.462,136.232 31.544,136.028 31.417 C 135.823 31.291,135.540 31.373,135.400 31.600 C 135.260 31.827,134.977 31.909,134.772 31.783 C 134.568 31.656,134.400 31.705,134.400 31.891 C 134.400 32.077,133.998 32.260,133.506 32.297 C 133.014 32.334,132.549 32.554,132.472 32.785 C 132.395 33.016,132.167 33.103,131.966 32.979 C 131.765 32.855,131.600 32.938,131.600 33.164 C 131.600 33.390,131.353 33.480,131.052 33.364 C 130.750 33.249,130.231 33.426,129.899 33.758 C 129.567 34.090,129.184 34.250,129.048 34.114 C 128.911 33.978,128.800 34.087,128.800 34.357 C 128.800 34.627,128.627 34.740,128.415 34.609 C 127.992 34.348,123.881 36.290,123.666 36.853 C 123.592 37.047,123.362 37.100,123.155 36.972 C 122.766 36.732,116.789 39.825,116.355 40.492 C 116.221 40.699,115.951 40.882,115.755 40.898 C 114.827 40.975,114.000 41.327,114.000 41.647 C 114.000 41.841,113.730 42.000,113.400 42.000 C 113.070 42.000,112.800 42.191,112.800 42.424 C 112.800 42.657,112.620 42.736,112.400 42.600 C 112.180 42.464,112.000 42.554,112.000 42.800 C 112.000 43.046,111.847 43.153,111.661 43.037 C 111.474 42.922,110.934 43.188,110.461 43.629 C 109.987 44.070,109.594 44.289,109.587 44.116 C 109.580 43.942,109.303 44.160,108.970 44.600 C 108.638 45.040,108.295 45.310,108.208 45.200 C 107.984 44.915,103.600 47.625,103.600 48.049 C 103.600 48.242,103.441 48.355,103.246 48.300 C 102.538 48.100,89.104 58.038,86.000 61.058 C 85.450 61.593,84.010 62.870,82.800 63.897 C 76.697 69.075,63.422 83.323,60.748 87.566 C 60.390 88.135,59.760 88.960,59.348 89.400 C 58.308 90.513,56.400 93.096,56.400 93.391 C 56.400 93.525,55.950 94.120,55.400 94.713 C 54.850 95.307,54.400 96.019,54.400 96.296 C 54.400 96.573,54.220 96.800,54.000 96.800 C 53.780 96.800,53.600 97.070,53.600 97.400 C 53.600 97.730,53.420 98.000,53.200 98.000 C 52.980 98.000,52.800 98.270,52.800 98.600 C 52.800 98.930,52.640 99.200,52.443 99.200 C 52.247 99.200,51.974 99.650,51.836 100.200 C 51.698 100.750,51.408 101.200,51.192 101.200 C 50.977 101.200,50.800 101.470,50.800 101.800 C 50.800 102.130,50.620 102.400,50.400 102.400 C 50.180 102.400,50.000 102.638,50.000 102.930 C 50.000 103.221,49.370 104.345,48.600 105.428 C 47.830 106.511,47.200 107.595,47.200 107.838 C 47.200 108.080,46.840 108.693,46.400 109.200 C 45.960 109.707,45.600 110.300,45.600 110.517 C 45.600 110.734,45.072 111.769,44.428 112.817 C 43.783 113.865,43.337 114.804,43.437 114.904 C 43.537 115.004,43.345 115.314,43.010 115.592 C 42.674 115.870,42.400 116.436,42.400 116.849 C 42.400 117.262,42.220 117.600,42.000 117.600 C 41.780 117.600,41.600 117.891,41.600 118.246 C 41.600 118.601,41.169 119.726,40.642 120.746 C 34.917 131.823,29.560 149.086,26.804 165.340 C 25.886 170.754,25.818 172.000,26.444 172.000 C 26.715 172.000,26.824 171.457,26.724 170.600 C 26.634 169.830,26.725 169.200,26.926 169.200 C 27.127 169.200,27.212 168.660,27.115 168.000 C 27.018 167.340,27.108 166.800,27.315 166.800 C 27.522 166.800,27.613 166.270,27.518 165.621 C 27.417 164.935,27.504 164.541,27.726 164.678 C 27.950 164.817,28.031 164.396,27.923 163.657 C 27.822 162.966,27.900 162.400,28.098 162.400 C 28.296 162.400,28.418 161.995,28.369 161.500 C 28.321 161.005,28.425 160.265,28.600 159.856 C 28.776 159.447,28.937 158.592,28.960 157.957 C 28.982 157.322,29.098 156.801,29.217 156.801 C 29.428 156.800,30.499 152.429,30.592 151.193 C 30.617 150.859,30.775 150.364,30.943 150.093 C 31.110 149.822,31.144 149.432,31.017 149.228 C 30.891 149.023,30.973 148.740,31.200 148.600 C 31.427 148.460,31.509 148.177,31.383 147.972 C 31.256 147.768,31.356 147.600,31.603 147.600 C 31.865 147.600,31.952 147.279,31.811 146.834 C 31.677 146.412,31.758 145.950,31.990 145.806 C 32.223 145.662,32.309 145.377,32.183 145.172 C 32.056 144.968,32.163 144.800,32.419 144.800 C 32.676 144.800,32.789 144.548,32.670 144.239 C 32.552 143.931,32.578 143.556,32.728 143.406 C 32.877 143.256,33.023 142.968,33.050 142.767 C 33.078 142.565,33.145 142.310,33.200 142.200 C 33.255 142.090,33.345 141.820,33.400 141.600 C 33.455 141.380,33.545 141.110,33.600 141.000 C 33.655 140.890,33.727 140.665,33.760 140.500 C 34.086 138.859,34.973 136.400,35.239 136.400 C 35.424 136.400,35.471 136.130,35.345 135.800 C 35.214 135.460,35.335 135.200,35.624 135.200 C 35.904 135.200,36.023 135.090,35.888 134.955 C 35.581 134.648,36.794 131.504,37.372 131.106 C 37.608 130.944,37.663 130.809,37.495 130.806 C 37.327 130.803,37.460 130.151,37.792 129.358 C 38.123 128.564,38.295 127.754,38.174 127.558 C 38.052 127.361,38.110 127.200,38.302 127.200 C 38.791 127.200,40.064 124.427,39.783 123.973 C 39.656 123.768,39.754 123.600,40.000 123.600 C 40.246 123.600,40.336 123.420,40.200 123.200 C 40.064 122.980,40.154 122.800,40.400 122.800 C 40.646 122.800,40.745 122.635,40.621 122.434 C 40.497 122.233,40.553 122.008,40.746 121.934 C 41.131 121.787,45.673 112.984,45.586 112.555 C 45.556 112.409,45.692 112.179,45.887 112.045 C 46.541 111.594,47.993 108.926,47.728 108.661 C 47.584 108.518,47.687 108.400,47.957 108.400 C 48.227 108.400,48.336 108.220,48.200 108.000 C 48.064 107.780,48.143 107.600,48.376 107.600 C 48.609 107.600,48.800 107.330,48.800 107.000 C 48.800 106.670,48.991 106.400,49.224 106.400 C 49.457 106.400,49.543 106.231,49.415 106.025 C 49.288 105.818,49.502 105.471,49.892 105.253 C 50.281 105.035,50.551 104.752,50.492 104.624 C 50.308 104.229,51.598 102.000,52.010 102.000 C 52.225 102.000,52.355 101.847,52.300 101.661 C 52.245 101.474,53.614 99.328,55.343 96.891 C 57.072 94.455,58.422 92.378,58.343 92.276 C 58.264 92.174,58.650 91.716,59.200 91.258 C 59.750 90.801,60.045 90.421,59.856 90.413 C 59.666 90.406,59.936 90.046,60.456 89.613 C 60.975 89.181,61.255 88.821,61.078 88.813 C 60.900 88.806,61.260 88.335,61.878 87.768 C 62.495 87.200,62.730 86.864,62.400 87.020 C 62.070 87.177,62.430 86.749,63.200 86.069 C 63.970 85.389,64.485 84.825,64.345 84.816 C 64.083 84.800,66.352 82.197,70.600 77.641 C 71.920 76.225,72.794 75.186,72.542 75.331 C 72.289 75.477,73.725 73.977,75.733 71.998 C 77.740 70.019,79.506 68.400,79.657 68.400 C 79.808 68.400,80.892 67.436,82.066 66.258 C 83.240 65.080,85.460 63.082,87.000 61.819 C 88.540 60.555,90.225 59.044,90.744 58.461 C 91.263 57.877,91.540 57.670,91.359 58.000 C 91.178 58.330,91.788 58.000,92.715 57.266 C 93.642 56.533,94.400 55.768,94.400 55.566 C 94.400 55.365,94.554 55.245,94.743 55.300 C 95.359 55.480,98.820 52.757,98.544 52.309 C 98.386 52.054,98.463 51.992,98.731 52.158 C 99.120 52.398,105.504 48.396,107.118 46.900 C 107.414 46.625,107.914 46.400,108.229 46.400 C 108.543 46.400,108.800 46.220,108.800 46.000 C 108.800 45.780,109.166 45.600,109.613 45.600 C 110.059 45.600,110.528 45.331,110.654 45.002 C 110.781 44.674,111.018 44.487,111.181 44.588 C 111.345 44.690,111.866 44.412,112.339 43.971 C 112.813 43.530,113.200 43.270,113.200 43.395 C 113.200 43.519,113.740 43.341,114.400 43.000 C 115.060 42.659,115.600 42.193,115.600 41.966 C 115.600 41.739,115.780 41.664,116.000 41.800 C 116.220 41.936,116.400 41.827,116.400 41.557 C 116.400 41.287,116.505 41.171,116.633 41.299 C 116.891 41.558,125.252 37.279,125.652 36.684 C 125.791 36.477,126.000 36.553,126.120 36.855 C 126.267 37.225,126.347 37.168,126.368 36.676 C 126.386 36.278,126.564 36.054,126.764 36.178 C 127.343 36.536,128.423 35.963,128.121 35.458 C 127.937 35.151,128.044 35.160,128.446 35.485 C 128.930 35.877,129.153 35.821,129.605 35.194 C 130.017 34.622,130.246 34.547,130.476 34.909 C 130.719 35.292,130.789 35.293,130.794 34.913 C 130.797 34.644,131.070 34.529,131.400 34.655 C 131.730 34.782,132.000 34.705,132.000 34.484 C 132.000 33.972,141.122 30.304,141.624 30.615 C 141.831 30.743,142.000 30.637,142.000 30.381 C 142.000 30.124,142.270 30.018,142.600 30.145 C 142.930 30.271,143.200 30.190,143.200 29.964 C 143.200 29.738,143.368 29.656,143.572 29.783 C 143.777 29.909,144.053 29.838,144.185 29.624 C 144.317 29.410,144.690 29.336,145.013 29.460 C 145.336 29.584,145.600 29.492,145.600 29.255 C 145.600 29.019,145.870 28.929,146.200 29.055 C 146.530 29.182,146.800 29.076,146.800 28.819 C 146.800 28.563,146.968 28.456,147.172 28.583 C 147.377 28.709,147.653 28.638,147.785 28.424 C 147.917 28.210,148.290 28.136,148.613 28.260 C 148.936 28.384,149.200 28.292,149.200 28.055 C 149.200 27.819,149.470 27.729,149.800 27.855 C 150.130 27.982,150.400 27.867,150.400 27.600 C 150.400 27.333,150.670 27.218,151.000 27.345 C 151.330 27.471,151.600 27.397,151.600 27.180 C 151.600 26.952,152.049 26.897,152.660 27.051 C 153.452 27.250,153.641 27.190,153.410 26.815 C 153.183 26.448,153.327 26.386,153.950 26.584 C 154.443 26.741,154.800 26.680,154.800 26.440 C 154.800 26.212,155.070 26.129,155.400 26.255 C 155.730 26.382,156.000 26.274,156.000 26.016 C 156.000 25.728,156.310 25.644,156.800 25.800 C 157.265 25.948,157.600 25.872,157.600 25.619 C 157.600 25.349,158.000 25.285,158.660 25.451 C 159.424 25.643,159.638 25.584,159.426 25.242 C 159.214 24.899,159.434 24.843,160.226 25.042 C 161.018 25.241,161.239 25.186,161.026 24.842 C 160.816 24.502,161.024 24.441,161.766 24.627 C 162.346 24.773,162.800 24.716,162.800 24.499 C 162.800 24.285,163.277 24.202,163.859 24.313 C 164.583 24.452,164.830 24.373,164.640 24.064 C 164.443 23.746,164.740 23.688,165.642 23.868 C 166.524 24.045,166.840 23.988,166.653 23.686 C 166.467 23.385,166.854 23.313,167.891 23.457 C 169.064 23.620,169.266 23.566,168.800 23.218 C 168.339 22.874,168.561 22.833,169.758 23.041 C 170.799 23.221,171.230 23.172,171.058 22.893 C 170.887 22.617,171.359 22.551,172.461 22.699 C 173.608 22.853,174.039 22.786,173.852 22.485 C 173.666 22.184,174.040 22.122,175.053 22.286 C 176.103 22.457,176.443 22.394,176.242 22.067 C 176.037 21.736,176.477 21.681,177.842 21.868 C 179.179 22.051,179.645 21.997,179.450 21.680 C 179.255 21.365,179.790 21.297,181.287 21.450 C 182.852 21.610,183.244 21.554,182.800 21.237 C 182.362 20.924,183.063 20.863,185.400 21.011 C 187.160 21.123,188.292 21.076,187.915 20.907 C 187.538 20.738,192.976 20.600,200.000 20.600 C 207.024 20.600,212.462 20.738,212.085 20.907 C 211.708 21.076,212.840 21.123,214.600 21.011 C 216.937 20.863,217.638 20.924,217.200 21.237 C 216.756 21.554,217.148 21.610,218.713 21.450 C 220.210 21.297,220.745 21.365,220.550 21.680 C 220.354 21.997,220.841 22.051,222.237 21.866 C 223.689 21.673,224.044 21.717,223.600 22.036 C 223.153 22.356,223.491 22.408,224.921 22.238 C 225.977 22.112,226.745 22.165,226.628 22.355 C 226.342 22.818,229.336 23.272,230.707 22.973 C 231.591 22.781,231.685 22.825,231.200 23.201 C 230.723 23.571,230.910 23.623,232.109 23.457 C 232.939 23.342,233.525 23.397,233.412 23.580 C 233.145 24.013,235.699 24.491,236.546 24.165 C 236.932 24.017,237.200 24.115,237.200 24.404 C 237.200 24.696,237.522 24.809,238.000 24.684 C 238.440 24.569,238.800 24.658,238.800 24.881 C 238.800 25.118,239.231 25.179,239.834 25.027 C 240.576 24.841,240.784 24.902,240.574 25.242 C 240.361 25.586,240.582 25.641,241.374 25.442 C 242.166 25.243,242.386 25.299,242.174 25.642 C 241.961 25.986,242.182 26.041,242.974 25.842 C 243.771 25.642,243.987 25.697,243.771 26.047 C 243.563 26.383,243.732 26.459,244.337 26.300 C 244.812 26.176,245.200 26.250,245.200 26.464 C 245.200 26.680,245.581 26.733,246.050 26.584 C 246.676 26.385,246.818 26.448,246.588 26.820 C 246.360 27.188,246.509 27.265,247.137 27.101 C 247.611 26.977,248.095 27.030,248.212 27.220 C 248.330 27.410,248.719 27.452,249.078 27.315 C 249.550 27.133,249.640 27.211,249.403 27.595 C 249.157 27.993,249.290 28.070,249.937 27.900 C 250.412 27.776,250.800 27.857,250.800 28.080 C 250.800 28.303,251.064 28.384,251.387 28.260 C 251.710 28.136,252.083 28.210,252.215 28.424 C 252.347 28.638,252.610 28.717,252.800 28.600 C 252.990 28.483,253.260 28.573,253.400 28.800 C 253.540 29.027,253.823 29.109,254.028 28.983 C 254.232 28.856,254.400 28.963,254.400 29.219 C 254.400 29.476,254.652 29.589,254.961 29.470 C 255.269 29.352,255.635 29.368,255.772 29.506 C 255.910 29.644,256.299 29.797,256.635 29.846 C 257.917 30.034,263.200 32.122,263.200 32.441 C 263.200 32.625,263.447 32.680,263.748 32.564 C 264.050 32.449,264.547 32.604,264.852 32.909 C 265.157 33.214,265.610 33.397,265.857 33.314 C 266.105 33.232,266.598 33.455,266.954 33.811 C 267.309 34.166,267.600 34.350,267.600 34.219 C 267.600 34.089,268.050 34.276,268.600 34.637 C 269.330 35.115,269.600 35.155,269.600 34.785 C 269.600 34.486,269.888 34.606,270.300 35.076 C 270.685 35.515,271.395 35.843,271.877 35.806 C 272.360 35.768,272.720 35.931,272.677 36.169 C 272.635 36.406,272.960 36.600,273.400 36.600 C 273.840 36.600,274.290 36.708,274.400 36.839 C 274.871 37.402,282.340 41.126,282.559 40.907 C 282.692 40.775,282.800 40.887,282.800 41.157 C 282.800 41.427,282.980 41.536,283.200 41.400 C 283.420 41.264,283.600 41.339,283.600 41.566 C 283.600 42.085,285.810 43.257,286.149 42.917 C 286.287 42.779,286.400 42.907,286.400 43.200 C 286.400 43.493,286.517 43.616,286.660 43.473 C 286.804 43.330,287.119 43.470,287.360 43.784 C 287.602 44.099,288.055 44.411,288.367 44.478 C 288.678 44.545,289.270 44.922,289.681 45.315 C 290.093 45.708,290.584 45.934,290.773 45.817 C 290.962 45.700,291.219 45.874,291.346 46.202 C 291.472 46.531,291.773 46.800,292.016 46.800 C 292.735 46.800,300.400 51.998,300.400 52.485 C 300.400 52.732,300.512 52.821,300.649 52.684 C 300.787 52.547,301.507 52.898,302.249 53.465 C 302.992 54.031,303.600 54.364,303.600 54.203 C 303.600 54.043,303.954 54.336,304.387 54.856 C 304.819 55.375,305.179 55.645,305.187 55.456 C 305.194 55.266,305.554 55.536,305.987 56.056 C 306.419 56.575,306.779 56.841,306.787 56.646 C 306.794 56.451,307.174 56.768,307.632 57.350 C 308.090 57.932,308.630 58.305,308.832 58.180 C 309.034 58.055,309.200 58.115,309.200 58.314 C 309.200 58.512,310.983 60.148,313.161 61.948 C 315.340 63.749,317.725 65.902,318.461 66.734 C 319.968 68.436,321.468 69.556,320.400 68.181 C 320.070 67.757,321.441 69.096,323.446 71.157 C 325.451 73.218,327.104 74.982,327.120 75.077 C 327.136 75.171,328.295 76.464,329.696 77.949 C 331.098 79.434,333.289 81.944,334.567 83.525 C 335.845 85.106,337.060 86.400,337.269 86.400 C 337.477 86.400,337.545 86.566,337.420 86.768 C 337.295 86.970,337.668 87.510,338.250 87.968 C 338.832 88.426,339.149 88.806,338.954 88.813 C 338.759 88.821,339.025 89.181,339.544 89.613 C 340.064 90.046,340.334 90.406,340.144 90.413 C 339.955 90.421,340.169 90.736,340.621 91.113 C 341.072 91.491,341.452 91.953,341.464 92.141 C 341.476 92.328,342.692 94.166,344.166 96.225 C 345.639 98.283,346.790 100.057,346.722 100.167 C 346.655 100.276,346.960 100.638,347.400 100.970 C 347.840 101.303,348.058 101.580,347.884 101.587 C 347.711 101.594,347.930 101.987,348.371 102.461 C 348.812 102.934,349.077 103.475,348.961 103.663 C 348.844 103.852,349.031 104.114,349.375 104.246 C 349.719 104.378,350.000 104.832,350.000 105.255 C 350.000 105.679,350.270 106.129,350.600 106.255 C 350.930 106.382,351.200 106.832,351.200 107.255 C 351.200 107.679,351.469 108.128,351.798 108.254 C 352.126 108.381,352.296 108.645,352.174 108.842 C 352.052 109.039,352.143 109.200,352.376 109.200 C 352.609 109.200,352.755 109.342,352.700 109.516 C 352.573 109.915,358.044 120.153,358.481 120.334 C 358.659 120.408,358.703 120.633,358.579 120.834 C 358.455 121.035,358.554 121.200,358.800 121.200 C 359.046 121.200,359.136 121.380,359.000 121.600 C 358.864 121.820,358.913 122.000,359.110 122.000 C 359.306 122.000,359.467 122.258,359.467 122.573 C 359.467 123.076,360.462 125.551,362.205 129.384 C 362.501 130.035,362.656 130.710,362.548 130.884 C 362.441 131.058,362.508 131.200,362.697 131.200 C 362.887 131.200,363.364 132.145,363.757 133.300 C 364.151 134.455,364.576 135.670,364.702 136.000 C 364.828 136.330,364.949 136.690,364.972 136.800 C 364.994 136.910,365.155 137.225,365.330 137.500 C 365.504 137.775,365.536 138.180,365.400 138.400 C 365.264 138.620,365.329 138.800,365.545 138.800 C 365.864 138.800,366.479 140.508,366.577 141.667 C 366.590 141.813,366.723 142.056,366.872 142.206 C 367.022 142.356,367.048 142.731,366.930 143.039 C 366.811 143.348,366.924 143.600,367.181 143.600 C 367.437 143.600,367.544 143.768,367.417 143.972 C 367.291 144.177,367.382 144.465,367.621 144.613 C 367.859 144.760,367.958 145.133,367.840 145.440 C 367.722 145.748,367.812 146.000,368.040 146.000 C 368.272 146.000,368.342 146.351,368.200 146.800 C 368.060 147.240,368.121 147.600,368.336 147.600 C 368.550 147.600,368.631 147.960,368.516 148.400 C 368.399 148.847,368.504 149.200,368.753 149.200 C 368.999 149.200,369.179 149.335,369.153 149.500 C 369.127 149.665,369.137 149.890,369.176 150.000 C 369.214 150.110,369.321 150.918,369.413 151.797 C 369.504 152.675,369.765 153.455,369.992 153.531 C 370.219 153.606,370.303 153.833,370.179 154.034 C 370.055 154.235,370.092 154.625,370.262 154.900 C 370.569 155.397,370.602 155.594,370.732 157.724 C 370.769 158.342,370.936 158.763,371.101 158.661 C 371.267 158.559,371.435 159.309,371.474 160.328 C 371.514 161.348,371.739 162.246,371.975 162.325 C 372.212 162.404,372.307 162.627,372.187 162.821 C 371.866 163.341,372.448 167.218,372.813 166.992 C 372.985 166.886,373.032 167.156,372.918 167.593 C 372.803 168.030,372.840 168.706,373.000 169.094 C 373.160 169.482,373.328 170.340,373.374 171.000 C 373.699 175.682,374.163 179.200,374.455 179.200 C 376.049 179.200,371.682 154.988,367.746 142.000 C 366.137 136.690,360.392 122.350,358.571 119.100 C 358.232 118.495,358.100 117.997,358.277 117.994 C 358.455 117.991,358.363 117.837,358.073 117.654 C 357.784 117.470,357.496 117.068,357.434 116.760 C 357.275 115.975,356.703 114.638,356.424 114.400 C 356.295 114.290,355.749 113.300,355.210 112.200 C 354.672 111.100,353.736 109.458,353.131 108.551 C 352.526 107.644,352.144 106.789,352.282 106.651 C 352.420 106.513,352.365 106.400,352.158 106.400 C 351.952 106.400,351.337 105.545,350.792 104.500 C 350.246 103.455,349.665 102.540,349.500 102.467 C 349.335 102.393,349.200 102.078,349.200 101.767 C 349.200 101.455,349.040 101.200,348.843 101.200 C 348.647 101.200,348.374 100.750,348.236 100.200 C 348.098 99.650,347.808 99.200,347.592 99.200 C 347.377 99.200,347.200 98.949,347.200 98.643 C 347.200 98.336,346.919 97.978,346.575 97.846 C 346.231 97.714,346.062 97.423,346.200 97.200 C 346.338 96.977,346.170 96.687,345.828 96.555 C 345.485 96.424,345.305 96.154,345.428 95.955 C 345.550 95.757,345.369 95.486,345.025 95.354 C 344.681 95.222,344.400 94.864,344.400 94.557 C 344.400 94.251,344.220 94.000,344.000 94.000 C 343.780 94.000,343.600 93.812,343.600 93.583 C 343.600 93.161,341.210 89.809,339.648 88.039 C 339.182 87.510,338.798 86.970,338.795 86.839 C 338.792 86.707,338.117 85.864,337.295 84.964 C 336.473 84.064,335.170 82.548,334.400 81.595 C 329.550 75.590,317.175 63.220,316.300 63.503 C 316.135 63.556,316.045 63.438,316.100 63.240 C 316.155 63.042,316.076 62.907,315.924 62.940 C 315.773 62.973,315.008 62.280,314.225 61.400 C 313.441 60.520,312.800 59.946,312.800 60.125 C 312.800 60.303,312.305 59.927,311.700 59.289 C 309.246 56.700,295.398 46.630,294.800 47.000 C 294.626 47.107,294.371 46.901,294.232 46.540 C 294.094 46.180,293.880 45.986,293.757 46.109 C 293.634 46.233,293.182 45.982,292.752 45.552 C 292.322 45.122,291.816 44.866,291.627 44.983 C 291.438 45.100,291.176 44.915,291.045 44.572 C 290.913 44.230,290.624 44.061,290.403 44.198 C 290.181 44.335,290.000 44.295,290.000 44.110 C 290.000 43.629,287.764 42.370,287.456 42.677 C 287.315 42.818,287.200 42.723,287.200 42.467 C 287.200 42.210,286.930 42.000,286.600 42.000 C 286.270 42.000,286.000 41.842,286.000 41.649 C 286.000 41.285,283.844 40.259,283.362 40.393 C 283.212 40.434,282.979 40.308,282.845 40.113 C 282.316 39.346,279.588 37.960,279.145 38.234 C 278.877 38.400,278.783 38.352,278.926 38.120 C 279.216 37.650,277.318 36.680,276.770 37.019 C 276.567 37.144,276.400 37.092,276.400 36.903 C 276.400 36.364,272.803 34.754,272.274 35.057 C 272.013 35.206,271.934 35.180,272.098 34.999 C 272.392 34.675,269.836 33.340,268.491 33.115 C 268.111 33.052,267.694 32.856,267.564 32.680 C 267.434 32.504,266.939 32.331,266.464 32.295 C 265.989 32.259,265.600 32.077,265.600 31.891 C 265.600 31.705,265.432 31.656,265.228 31.783 C 265.023 31.909,264.740 31.827,264.600 31.600 C 264.460 31.373,264.177 31.291,263.972 31.417 C 263.768 31.544,263.600 31.462,263.600 31.236 C 263.600 31.010,263.330 30.929,263.000 31.055 C 262.670 31.182,262.400 31.125,262.400 30.928 C 262.400 30.731,262.011 30.541,261.536 30.505 C 261.061 30.469,260.524 30.206,260.342 29.920 C 260.161 29.634,260.009 29.557,260.006 29.749 C 260.003 29.941,259.702 29.851,259.339 29.549 C 258.975 29.247,258.615 29.045,258.539 29.100 C 258.462 29.155,258.355 29.187,258.300 29.170 C 258.245 29.154,257.760 29.060,257.223 28.961 C 256.685 28.862,255.695 28.507,255.023 28.171 C 254.350 27.835,253.080 27.384,252.200 27.169 C 251.320 26.954,250.330 26.695,250.000 26.595 C 244.995 25.074,235.484 22.885,230.786 22.174 C 219.411 20.452,217.818 20.347,201.800 20.263 C 193.000 20.217,184.990 20.239,184.000 20.311 M162.600 37.600 C 161.581 38.038,162.632 38.038,164.000 37.600 C 164.804 37.343,164.843 37.277,164.200 37.268 C 163.760 37.262,163.040 37.411,162.600 37.600 M156.851 39.018 C 152.126 40.356,144.719 42.852,144.909 43.043 C 144.997 43.130,146.133 42.829,147.434 42.373 C 148.735 41.917,152.500 40.755,155.800 39.790 C 159.100 38.825,161.440 38.043,161.000 38.052 C 160.560 38.062,158.693 38.496,156.851 39.018 M242.800 39.386 C 245.330 40.128,248.832 41.192,250.583 41.751 C 252.333 42.310,253.830 42.704,253.908 42.625 C 254.084 42.450,246.484 39.945,242.374 38.825 C 237.469 37.487,237.796 37.919,242.800 39.386 M254.433 42.958 C 254.772 43.280,260.963 45.571,261.106 45.427 C 261.188 45.346,259.808 44.721,258.040 44.040 C 255.032 42.880,254.036 42.581,254.433 42.958 M141.283 44.269 C 139.898 44.835,138.833 45.366,138.915 45.449 C 139.059 45.592,144.022 43.691,144.367 43.360 C 144.768 42.975,143.618 43.314,141.283 44.269 M262.400 46.200 C 262.950 46.514,263.580 46.772,263.800 46.772 C 264.020 46.772,263.750 46.514,263.200 46.200 C 262.650 45.886,262.020 45.628,261.800 45.628 C 261.580 45.628,261.850 45.886,262.400 46.200 M116.316 56.527 C 113.740 58.107,111.130 59.800,110.516 60.289 C 109.902 60.777,112.100 59.538,115.400 57.534 C 121.928 53.570,121.902 53.587,121.367 53.627 C 121.165 53.643,118.892 54.948,116.316 56.527 M278.400 53.755 C 278.400 53.852,279.558 54.579,280.973 55.370 C 282.388 56.161,285.718 58.244,288.373 59.998 C 293.475 63.369,294.920 64.063,290.700 61.116 C 286.159 57.944,278.400 53.301,278.400 53.755 M107.800 62.235 L 106.600 63.266 107.900 62.406 C 108.615 61.933,109.200 61.468,109.200 61.373 C 109.200 61.073,109.031 61.178,107.800 62.235 M105.000 64.235 L 103.800 65.266 105.100 64.406 C 105.815 63.933,106.400 63.468,106.400 63.373 C 106.400 63.073,106.231 63.178,105.000 64.235 M293.600 63.346 C 293.600 63.456,294.140 63.930,294.800 64.400 C 295.460 64.870,296.000 65.164,296.000 65.054 C 296.000 64.944,295.460 64.470,294.800 64.000 C 294.140 63.530,293.600 63.236,293.600 63.346 M306.800 73.829 C 308.670 75.557,312.015 78.687,314.234 80.785 C 317.199 83.590,316.979 83.329,313.404 79.800 C 310.730 77.160,307.384 74.030,305.971 72.844 C 304.215 71.372,304.478 71.684,306.800 73.829 M93.107 73.700 C 90.842 75.891,90.800 75.957,92.762 74.233 C 96.009 71.379,96.196 71.200,95.931 71.200 C 95.799 71.200,94.528 72.325,93.107 73.700 M85.193 81.100 L 80.600 85.800 85.300 81.207 C 89.666 76.940,90.182 76.400,89.893 76.400 C 89.835 76.400,87.720 78.515,85.193 81.100 M320.802 87.844 C 322.013 89.140,323.784 91.100,324.739 92.200 C 325.693 93.300,326.082 93.660,325.604 93.000 C 324.003 90.793,320.209 86.510,319.400 85.996 C 318.960 85.717,319.591 86.548,320.802 87.844 M78.418 88.134 L 77.037 89.800 78.718 88.219 C 79.643 87.349,80.400 86.584,80.400 86.519 C 80.400 86.059,79.594 86.716,78.418 88.134 M75.775 91.300 L 74.600 92.600 75.900 91.425 C 77.112 90.330,77.384 90.000,77.075 90.000 C 77.006 90.000,76.421 90.585,75.775 91.300 M334.740 105.900 C 336.468 108.485,338.759 112.074,339.832 113.875 C 340.905 115.676,341.846 117.088,341.922 117.012 C 342.271 116.663,332.352 101.200,331.780 101.200 C 331.680 101.200,333.012 103.315,334.740 105.900 M64.836 105.746 C 62.799 108.766,58.909 115.074,58.007 116.822 C 56.924 118.920,58.422 116.735,62.135 110.800 C 64.268 107.390,66.303 104.195,66.656 103.700 C 67.009 103.205,67.191 102.800,67.061 102.800 C 66.931 102.800,65.930 104.126,64.836 105.746 M50.065 133.417 C 49.395 134.888,49.523 135.202,50.247 133.865 C 50.586 133.240,50.788 132.654,50.696 132.563 C 50.605 132.471,50.321 132.856,50.065 133.417 M349.228 132.600 C 349.228 132.820,349.486 133.450,349.800 134.000 C 350.114 134.550,350.372 134.820,350.372 134.600 C 350.372 134.380,350.114 133.750,349.800 133.200 C 349.486 132.650,349.228 132.380,349.228 132.600 M350.615 135.800 C 350.745 136.240,351.629 138.760,352.578 141.400 C 353.527 144.040,354.720 147.625,355.230 149.366 C 355.739 151.108,356.225 152.325,356.309 152.073 C 356.487 151.538,352.461 139.458,351.220 136.800 C 350.757 135.810,350.485 135.360,350.615 135.800 M48.218 137.883 C 46.115 143.260,42.149 156.283,42.506 156.639 C 42.600 156.733,43.089 155.232,43.594 153.305 C 44.098 151.377,45.465 147.014,46.631 143.609 C 47.797 140.203,48.694 137.361,48.625 137.291 C 48.555 137.222,48.373 137.488,48.218 137.883 M356.449 153.000 C 356.432 153.220,356.772 154.660,357.204 156.200 C 357.637 157.740,357.901 158.357,357.791 157.571 C 357.572 156.013,356.498 152.353,356.449 153.000 M41.629 159.429 C 41.354 160.657,41.206 161.739,41.300 161.833 C 41.394 161.928,41.697 161.000,41.971 159.771 C 42.246 158.543,42.394 157.461,42.300 157.367 C 42.206 157.272,41.903 158.200,41.629 159.429 M358.486 161.400 C 358.481 161.840,358.708 163.100,358.991 164.200 C 359.274 165.300,359.509 165.840,359.514 165.400 C 359.519 164.960,359.292 163.700,359.009 162.600 C 358.726 161.500,358.491 160.960,358.486 161.400 M40.600 164.000 C 40.446 164.910,40.404 165.738,40.507 165.840 C 40.610 165.943,40.813 165.277,40.960 164.360 C 41.107 163.443,41.148 162.615,41.053 162.520 C 40.958 162.424,40.754 163.090,40.600 164.000 M25.600 173.341 C 25.600 173.859,25.487 175.434,25.348 176.841 C 25.180 178.555,25.230 179.268,25.499 179.000 C 26.074 178.429,26.546 172.400,26.017 172.400 C 25.788 172.400,25.600 172.824,25.600 173.341 M24.976 180.987 C 24.353 184.306,25.083 213.214,25.947 219.461 C 27.750 232.493,34.019 256.922,35.940 258.400 C 36.083 258.510,36.203 258.780,36.207 259.000 C 36.219 259.753,37.262 262.400,37.546 262.400 C 37.702 262.400,37.859 262.791,37.895 263.269 C 37.982 264.419,45.333 279.183,48.218 284.000 C 66.807 315.038,91.514 337.786,123.800 353.590 C 130.775 357.004,140.280 360.921,140.803 360.598 C 140.984 360.486,141.192 360.564,141.266 360.771 C 141.340 360.978,142.660 361.504,144.200 361.940 C 145.740 362.375,149.520 363.470,152.600 364.373 C 168.398 369.002,178.198 370.201,200.200 370.196 C 218.038 370.191,219.433 370.099,231.200 368.157 C 235.345 367.473,248.760 364.135,252.600 362.833 C 253.920 362.386,255.315 362.015,255.700 362.010 C 256.085 362.004,256.400 361.808,256.400 361.573 C 256.400 361.320,256.054 361.256,255.551 361.416 C 255.083 361.564,254.498 361.729,254.251 361.782 C 254.003 361.836,253.530 361.969,253.200 362.079 C 252.870 362.189,251.989 362.480,251.241 362.727 C 250.494 362.973,249.729 363.080,249.541 362.964 C 249.354 362.848,249.200 362.905,249.200 363.091 C 249.200 363.277,248.841 363.457,248.402 363.490 C 247.963 363.523,245.488 364.087,242.902 364.744 C 216.136 371.539,186.551 371.830,160.400 365.555 C 157.650 364.895,154.802 364.275,154.071 364.176 C 153.341 364.078,152.396 363.812,151.971 363.585 C 151.547 363.358,151.200 363.267,151.200 363.384 C 151.200 363.501,150.255 363.222,149.100 362.764 C 147.945 362.305,146.604 361.873,146.119 361.803 C 144.903 361.626,142.544 360.832,140.400 359.877 C 139.410 359.437,138.275 359.014,137.877 358.937 C 136.029 358.581,121.940 352.100,116.950 349.309 C 115.878 348.709,114.756 348.182,114.457 348.138 C 114.158 348.094,113.515 347.683,113.027 347.225 C 112.540 346.767,112.045 346.489,111.927 346.606 C 111.810 346.723,111.486 346.545,111.208 346.210 C 110.930 345.874,110.454 345.600,110.151 345.600 C 109.848 345.600,109.600 345.420,109.600 345.200 C 109.600 344.980,109.366 344.800,109.080 344.800 C 108.180 344.800,92.283 333.665,89.512 331.093 C 89.220 330.822,87.815 329.615,86.390 328.411 C 77.711 321.076,70.712 313.823,62.780 303.942 C 58.243 298.291,52.092 289.741,52.300 289.375 C 52.355 289.279,52.033 288.833,51.585 288.385 C 51.137 287.937,50.866 287.416,50.983 287.227 C 51.100 287.038,50.915 286.776,50.572 286.645 C 50.230 286.513,50.061 286.224,50.198 286.003 C 50.335 285.781,50.257 285.600,50.024 285.600 C 49.791 285.600,49.600 285.402,49.600 285.160 C 49.600 284.919,48.632 283.074,47.450 281.060 C 43.879 274.982,37.237 261.200,37.879 261.200 C 37.999 261.200,37.914 260.975,37.689 260.700 C 36.998 259.856,35.202 255.121,35.431 254.750 C 35.550 254.557,35.485 254.400,35.287 254.400 C 34.874 254.400,33.351 249.655,33.522 248.900 C 33.584 248.625,33.453 248.400,33.230 248.400 C 33.007 248.400,32.929 248.130,33.055 247.800 C 33.182 247.470,33.076 247.200,32.819 247.200 C 32.563 247.200,32.443 247.055,32.552 246.877 C 32.662 246.700,32.304 245.035,31.756 243.177 C 26.917 226.772,25.022 211.710,25.279 191.700 C 25.439 179.266,25.421 178.617,24.976 180.987 M374.722 191.336 C 375.019 210.464,373.277 225.044,368.763 241.200 C 367.872 244.390,367.118 247.315,367.086 247.700 C 367.055 248.085,366.869 248.400,366.672 248.400 C 366.475 248.400,366.418 248.670,366.545 249.000 C 366.671 249.330,366.581 249.600,366.345 249.600 C 366.108 249.600,366.009 249.848,366.126 250.150 C 366.242 250.453,366.098 251.160,365.807 251.722 C 365.515 252.284,365.380 252.846,365.505 252.972 C 365.631 253.097,365.515 253.200,365.249 253.200 C 364.983 253.200,364.801 253.425,364.846 253.700 C 364.940 254.283,364.876 254.471,362.720 260.000 C 359.927 267.160,352.275 282.471,349.727 286.000 C 349.330 286.550,349.049 287.135,349.102 287.300 C 349.156 287.465,349.020 287.600,348.800 287.600 C 348.580 287.600,348.400 287.788,348.400 288.017 C 348.400 288.246,348.046 288.813,347.614 289.277 C 347.181 289.741,346.910 290.255,347.012 290.419 C 347.113 290.582,346.925 290.820,346.594 290.947 C 346.263 291.074,346.038 291.318,346.094 291.489 C 346.228 291.900,344.421 294.800,344.032 294.800 C 343.865 294.800,343.529 295.237,343.286 295.772 C 341.510 299.669,327.242 316.011,318.600 324.046 C 311.041 331.073,292.648 344.800,290.790 344.800 C 290.576 344.800,290.400 345.010,290.400 345.267 C 290.400 345.523,290.295 345.628,290.166 345.500 C 290.038 345.371,289.582 345.566,289.153 345.933 C 288.725 346.300,288.265 346.540,288.132 346.466 C 287.998 346.392,287.779 346.507,287.645 346.720 C 287.029 347.698,264.540 358.483,262.191 358.927 C 261.756 359.009,260.590 359.436,259.600 359.876 C 258.610 360.316,257.530 360.780,257.200 360.906 C 256.848 361.042,257.054 361.150,257.700 361.168 C 258.305 361.186,258.800 361.009,258.800 360.776 C 258.800 360.543,258.963 360.454,259.163 360.577 C 259.720 360.921,269.070 357.087,276.200 353.590 C 308.495 337.751,332.851 315.335,351.597 284.200 C 355.154 278.292,362.156 264.175,361.808 263.612 C 361.667 263.386,361.754 263.200,362.000 263.200 C 362.246 263.200,362.345 263.035,362.221 262.834 C 362.097 262.633,362.153 262.408,362.347 262.334 C 362.842 262.145,365.988 253.615,367.928 247.200 C 371.062 236.835,372.678 229.367,374.255 217.954 C 374.986 212.667,375.513 182.055,374.902 180.440 C 374.677 179.847,374.608 184.001,374.722 191.336 M37.693 195.600 C 37.693 196.370,37.775 196.685,37.876 196.300 C 37.976 195.915,37.976 195.285,37.876 194.900 C 37.775 194.515,37.693 194.830,37.693 195.600 M358.850 227.050 C 358.582 228.505,358.439 229.772,358.533 229.866 C 358.626 229.959,358.926 228.850,359.200 227.400 C 359.474 225.950,359.616 224.683,359.517 224.584 C 359.418 224.485,359.118 225.595,358.850 227.050 M40.829 227.200 C 40.781 228.035,42.469 235.265,42.665 235.068 C 42.812 234.922,41.387 227.939,41.020 227.000 C 40.934 226.780,40.848 226.870,40.829 227.200 M357.270 234.070 C 356.781 236.074,356.453 237.786,356.541 237.875 C 356.630 237.963,357.106 236.399,357.600 234.400 C 358.094 232.401,358.422 230.688,358.328 230.595 C 358.235 230.502,357.758 232.065,357.270 234.070 M43.066 236.800 C 43.380 238.761,47.837 252.262,48.810 254.200 C 49.252 255.080,49.494 255.440,49.348 255.000 C 49.202 254.560,47.973 250.960,46.616 247.000 C 45.259 243.040,43.855 238.810,43.495 237.600 C 43.132 236.377,42.941 236.022,43.066 236.800 M355.258 241.468 C 354.752 243.191,353.456 247.019,352.378 249.976 C 351.300 252.933,350.479 255.412,350.553 255.486 C 350.929 255.862,356.556 239.468,356.307 238.721 C 356.237 238.510,355.765 239.746,355.258 241.468 M58.200 274.400 C 58.541 275.060,58.911 275.600,59.021 275.600 C 59.131 275.600,58.941 275.060,58.600 274.400 C 58.259 273.740,57.889 273.200,57.779 273.200 C 57.669 273.200,57.859 273.740,58.200 274.400 M338.401 279.300 C 337.011 281.555,334.892 284.818,333.692 286.551 C 332.492 288.285,331.713 289.577,331.962 289.424 C 332.445 289.125,338.359 280.257,340.180 277.100 C 342.175 273.642,340.973 275.129,338.401 279.300 M61.212 279.400 C 62.621 281.798,66.795 288.000,66.999 288.000 C 67.222 288.000,61.267 278.750,60.691 278.200 C 60.461 277.980,60.695 278.520,61.212 279.400 M68.000 289.600 C 68.470 290.260,68.944 290.800,69.054 290.800 C 69.164 290.800,68.870 290.260,68.400 289.600 C 67.930 288.940,67.456 288.400,67.346 288.400 C 67.236 288.400,67.530 288.940,68.000 289.600 M76.451 300.400 C 77.412 301.610,80.718 305.128,83.799 308.217 C 87.190 311.618,87.728 312.091,85.163 309.417 C 82.832 306.988,80.206 304.190,79.326 303.200 C 75.728 299.151,74.541 297.995,76.451 300.400 M322.178 301.500 C 321.092 302.765,317.972 306.140,315.244 309.000 L 310.284 314.200 316.042 308.396 C 321.104 303.294,324.784 299.200,324.310 299.200 C 324.223 299.200,323.264 300.235,322.178 301.500 M308.162 315.652 C 307.743 316.121,305.510 318.042,303.200 319.921 C 298.511 323.735,296.984 325.135,299.400 323.405 C 302.874 320.918,309.792 314.800,309.132 314.800 C 309.017 314.800,308.581 315.183,308.162 315.652 M92.000 316.171 C 92.550 316.783,94.350 318.394,96.000 319.751 C 99.559 322.679,101.358 323.966,98.801 321.755 C 92.865 316.623,91.112 315.184,92.000 316.171 M111.200 330.920 C 112.141 331.809,119.961 336.578,122.400 337.750 C 125.166 339.079,124.824 338.853,117.000 334.178 C 113.480 332.074,110.870 330.608,111.200 330.920 M282.200 334.625 C 275.535 338.639,274.967 339.011,276.800 338.166 C 279.577 336.887,288.824 331.164,288.000 331.235 C 287.890 331.244,285.280 332.770,282.200 334.625 M146.000 348.124 C 146.000 348.630,162.900 353.640,164.368 353.570 C 164.716 353.553,163.020 353.012,160.600 352.368 C 156.705 351.330,148.281 348.790,146.613 348.150 C 146.276 348.020,146.000 348.009,146.000 348.124 M251.200 348.841 C 247.013 350.330,237.777 352.828,232.200 353.979 C 229.120 354.615,227.050 355.149,227.600 355.165 C 230.105 355.240,248.862 350.399,252.891 348.637 C 254.793 347.806,253.760 347.930,251.200 348.841 M167.200 354.234 C 168.410 354.534,170.300 354.873,171.400 354.987 C 172.619 355.114,171.994 354.893,169.800 354.422 C 165.706 353.542,163.877 353.410,167.200 354.234 M174.600 355.580 C 175.834 355.915,178.664 356.118,178.367 355.850 C 178.275 355.768,177.120 355.600,175.800 355.477 C 174.222 355.330,173.811 355.365,174.600 355.580 M223.000 355.600 L 221.400 355.886 222.800 355.896 C 223.570 355.901,224.740 355.768,225.400 355.600 C 227.028 355.186,225.313 355.186,223.000 355.600 M179.505 356.283 C 180.002 356.379,180.722 356.375,181.105 356.275 C 181.487 356.175,181.080 356.096,180.200 356.101 C 179.320 356.105,179.007 356.187,179.505 356.283 M219.105 356.283 C 219.602 356.379,220.322 356.375,220.705 356.275 C 221.087 356.175,220.680 356.096,219.800 356.101 C 218.920 356.105,218.607 356.187,219.105 356.283 M182.705 356.683 C 183.202 356.779,183.922 356.775,184.305 356.675 C 184.687 356.575,184.280 356.496,183.400 356.501 C 182.520 356.505,182.207 356.587,182.705 356.683 M215.905 356.683 C 216.402 356.779,217.122 356.775,217.505 356.675 C 217.887 356.575,217.480 356.496,216.600 356.501 C 215.720 356.505,215.407 356.587,215.905 356.683 M187.107 357.090 C 187.826 357.179,188.906 357.177,189.507 357.086 C 190.108 356.995,189.520 356.922,188.200 356.924 C 186.880 356.926,186.388 357.001,187.107 357.090 M212.100 357.076 C 212.485 357.176,213.115 357.176,213.500 357.076 C 213.885 356.975,213.570 356.893,212.800 356.893 C 212.030 356.893,211.715 356.975,212.100 357.076 M193.505 357.483 C 194.002 357.579,194.722 357.575,195.105 357.475 C 195.487 357.375,195.080 357.296,194.200 357.301 C 193.320 357.305,193.007 357.387,193.505 357.483 M199.300 357.476 C 199.685 357.576,200.315 357.576,200.700 357.476 C 201.085 357.375,200.770 357.293,200.000 357.293 C 199.230 357.293,198.915 357.375,199.300 357.476 " stroke="none" fill="#86f7d3" fill-rule="evenodd"></path><path id="path3" d="M290.592 109.400 C 290.592 131.620,290.641 140.769,290.700 129.730 C 290.759 118.692,290.759 100.512,290.700 89.330 C 290.641 78.149,290.592 87.180,290.592 109.400 M152.800 184.967 C 152.800 241.366,152.697 255.975,152.300 256.135 C 152.001 256.256,152.082 256.350,152.500 256.368 C 153.164 256.398,153.200 252.755,153.200 185.200 C 153.200 146.040,153.110 114.000,153.000 114.000 C 152.890 114.000,152.800 145.935,152.800 184.967 M265.600 169.120 L 265.800 209.800 265.902 169.422 C 265.958 147.214,265.868 128.908,265.702 128.742 C 265.536 128.576,265.490 146.746,265.600 169.120 M290.593 204.800 C 290.593 227.570,290.641 236.885,290.700 225.500 C 290.759 214.115,290.759 195.485,290.700 184.100 C 290.641 172.715,290.593 182.030,290.593 204.800 M245.500 206.696 C 246.875 206.774,249.125 206.774,250.500 206.696 C 251.875 206.618,250.750 206.554,248.000 206.554 C 245.250 206.554,244.125 206.618,245.500 206.696 M205.293 239.600 C 205.293 240.370,205.375 240.685,205.476 240.300 C 205.576 239.915,205.576 239.285,205.476 238.900 C 205.375 238.515,205.293 238.830,205.293 239.600 M205.293 245.200 C 205.293 245.970,205.375 246.285,205.476 245.900 C 205.576 245.515,205.576 244.885,205.476 244.500 C 205.375 244.115,205.293 244.430,205.293 245.200 M131.105 253.483 C 131.602 253.579,132.322 253.575,132.705 253.475 C 133.087 253.375,132.680 253.296,131.800 253.301 C 130.920 253.305,130.607 253.387,131.105 253.483 M137.500 253.482 C 137.995 253.578,138.805 253.578,139.300 253.482 C 139.795 253.387,139.390 253.309,138.400 253.309 C 137.410 253.309,137.005 253.387,137.500 253.482 M280.386 265.500 L 278.200 267.800 280.500 265.614 C 282.637 263.582,282.983 263.200,282.686 263.200 C 282.624 263.200,281.589 264.235,280.386 265.500 M216.400 266.600 C 217.146 267.370,217.847 268.000,217.957 268.000 C 218.067 268.000,217.546 267.370,216.800 266.600 C 216.054 265.830,215.353 265.200,215.243 265.200 C 215.133 265.200,215.654 265.830,216.400 266.600 M246.707 278.290 C 247.426 278.379,248.506 278.377,249.107 278.286 C 249.708 278.195,249.120 278.122,247.800 278.124 C 246.480 278.126,245.988 278.201,246.707 278.290 M92.546 289.000 C 92.547 291.200,92.614 292.049,92.695 290.887 C 92.776 289.724,92.776 287.924,92.693 286.887 C 92.611 285.849,92.545 286.800,92.546 289.000 M177.693 292.000 C 177.693 292.770,177.775 293.085,177.876 292.700 C 177.976 292.315,177.976 291.685,177.876 291.300 C 177.775 290.915,177.693 291.230,177.693 292.000 M167.586 312.300 L 165.400 314.600 167.700 312.414 C 169.837 310.382,170.183 310.000,169.886 310.000 C 169.824 310.000,168.789 311.035,167.586 312.300 M102.400 312.200 C 103.146 312.970,103.847 313.600,103.957 313.600 C 104.067 313.600,103.546 312.970,102.800 312.200 C 102.054 311.430,101.353 310.800,101.243 310.800 C 101.133 310.800,101.654 311.430,102.400 312.200 M75.000 319.200 C 76.528 320.740,77.869 322.000,77.979 322.000 C 78.089 322.000,76.928 320.740,75.400 319.200 C 73.872 317.660,72.531 316.400,72.421 316.400 C 72.311 316.400,73.472 317.660,75.000 319.200 M116.000 349.779 C 116.000 349.889,116.540 350.259,117.200 350.600 C 117.860 350.941,118.400 351.131,118.400 351.021 C 118.400 350.911,117.860 350.541,117.200 350.200 C 116.540 349.859,116.000 349.669,116.000 349.779 M281.900 350.629 C 280.405 351.440,280.496 351.778,282.000 351.000 C 282.660 350.659,283.200 350.294,283.200 350.190 C 283.200 349.932,283.157 349.947,281.900 350.629 " stroke="none" fill="#289a74" fill-rule="evenodd"></path><path id="path4" d="M153.755 112.212 C 153.390 112.769,153.164 113.298,153.253 113.387 C 153.342 113.476,153.718 113.020,154.089 112.374 C 154.914 110.936,154.669 110.817,153.755 112.212 M177.785 158.500 C 177.680 158.775,177.641 188.700,177.697 225.000 L 177.800 291.000 178.000 224.500 C 178.110 187.925,178.149 158.000,178.087 158.000 C 178.026 158.000,177.889 158.225,177.785 158.500 M205.309 242.400 C 205.309 243.390,205.387 243.795,205.482 243.300 C 205.578 242.805,205.578 241.995,205.482 241.500 C 205.387 241.005,205.309 241.410,205.309 242.400 M134.105 253.487 C 134.714 253.579,135.614 253.577,136.105 253.482 C 136.597 253.387,136.100 253.311,135.000 253.314 C 133.900 253.317,133.497 253.395,134.105 253.487 M102.378 266.300 L 101.000 267.800 102.500 266.422 C 103.896 265.138,104.184 264.800,103.878 264.800 C 103.812 264.800,103.137 265.475,102.378 266.300 M243.100 277.882 C 243.595 277.978,244.405 277.978,244.900 277.882 C 245.395 277.787,244.990 277.709,244.000 277.709 C 243.010 277.709,242.605 277.787,243.100 277.882 M251.100 277.882 C 251.595 277.978,252.405 277.978,252.900 277.882 C 253.395 277.787,252.990 277.709,252.000 277.709 C 251.010 277.709,250.605 277.787,251.100 277.882 M100.000 309.325 C 100.000 309.394,100.585 309.979,101.300 310.625 L 102.600 311.800 101.425 310.500 C 100.330 309.288,100.000 309.016,100.000 309.325 M104.000 313.400 C 104.746 314.170,105.447 314.800,105.557 314.800 C 105.667 314.800,105.146 314.170,104.400 313.400 C 103.654 312.630,102.953 312.000,102.843 312.000 C 102.733 312.000,103.254 312.630,104.000 313.400 M326.585 317.300 L 324.600 319.400 326.700 317.415 C 328.651 315.571,328.983 315.200,328.685 315.200 C 328.622 315.200,327.677 316.145,326.585 317.300 M321.381 322.500 L 319.800 324.200 321.500 322.619 C 323.081 321.148,323.384 320.800,323.081 320.800 C 323.016 320.800,322.251 321.565,321.381 322.500 M130.705 324.683 C 131.202 324.779,131.922 324.775,132.305 324.675 C 132.687 324.575,132.280 324.496,131.400 324.501 C 130.520 324.505,130.207 324.587,130.705 324.683 M138.305 324.683 C 138.802 324.779,139.522 324.775,139.905 324.675 C 140.287 324.575,139.880 324.496,139.000 324.501 C 138.120 324.505,137.807 324.587,138.305 324.683 " stroke="none" fill="#1c745c" fill-rule="evenodd"></path></g></svg>